MSHX1
GROUPS 2
LABEL 01_LMVC_Optics_EyePiece
MATERIAL 1
TEXTURE 1
FLAG 0
GEOM 52 52
-0.2850 0.2850 -0.0006 0.0000 -0.0000 -1.0000
-0.2850 -0.2850 -0.0006 0.0000 0.0000 -1.0000 0.0000 1.0000
0.2850 -0.2850 -0.0006 0.0000 0.0000 -1.0000 1.0000 1.0000
0.0822 -0.0218 -0.0006 0.0000 0.0000 -1.0000 0.6443 0.5383
0.0600 0.0604 -0.0006 0.0000 -0.0000 -1.0000 0.6053 0.3941
0.0603 -0.0601 -0.0006 0.0000 0.0000 -1.0000 0.6058 0.6054
-0.0219 -0.0823 -0.0006 0.0000 0.0000 -1.0000 0.4615 0.6444
-0.0003 0.0852 -0.0006 0.0000 -0.0000 -1.0000 0.4995 0.3506
0.0423 0.0738 -0.0006 0.0000 -0.0000 -1.0000 0.5743 0.3704
-0.0737 -0.0427 -0.0006 0.0000 -0.0000 -1.0000 0.3707 0.5750
0.0738 -0.0424 -0.0006 0.0000 0.0000 -1.0000 0.6294 0.5744
0.0851 0.0002 -0.0006 0.0000 0.0000 -1.0000 0.6493 0.4996
-0.0223 0.0822 -0.0006 0.0000 -0.0000 -1.0000 0.4609 0.3558
0.0222 -0.0822 -0.0006 0.0000 0.0000 -1.0000 0.5389 0.6442
-0.0601 -0.0604 -0.0006 0.0000 0.0000 -1.0000 0.3945 0.6059
-0.0823 -0.0222 -0.0006 0.0000 -0.0000 -1.0000 0.3556 0.5390
0.0821 0.0222 -0.0006 0.0000 0.0000 -1.0000 0.6441 0.4610
0.0218 0.0823 -0.0006 0.0000 -0.0000 -1.0000 0.5382 0.3556
-0.0604 0.0601 -0.0006 0.0000 -0.0000 -1.0000 0.3940 0.3946
-0.0824 0.0218 -0.0006 0.0000 -0.0000 -1.0000 0.3555 0.4617
0.0736 0.0428 -0.0006 0.0000 0.0000 -1.0000 0.6291 0.4250
-0.0425 -0.0738 -0.0006 0.0000 0.0000 -1.0000 0.4255 0.6296
0.0427 -0.0736 -0.0006 0.0000 0.0000 -1.0000 0.5749 0.6292
0.0001 -0.0851 -0.0006 0.0000 0.0000 -1.0000 0.5002 0.6494
-0.0428 0.0736 -0.0006 0.0000 -0.0000 -1.0000 0.4249 0.3708
-0.0852 -0.0002 -0.0006 0.0000 -0.0000 -1.0000 0.3505 0.5004
-0.0739 0.0424 -0.0006 0.0000 -0.0000 -1.0000 0.3703 0.4256
0.0676 -0.0517 -0.0006 0.0000 0.0000 -1.0000 0.6186 0.5907
0.0519 -0.0674 -0.0006 0.0000 0.0000 -1.0000 0.5911 0.6183
0.0327 -0.0786 -0.0006 0.0000 0.0000 -1.0000 0.5574 0.6379
0.0112 -0.0844 -0.0006 0.0000 0.0000 -1.0000 0.5197 0.6481
-0.0110 -0.0844 -0.0006 0.0000 0.0000 -1.0000 0.4807 0.6482
-0.0325 -0.0787 -0.0006 0.0000 0.0000 -1.0000 0.4430 0.6382
-0.0518 -0.0677 -0.0006 0.0000 0.0000 -1.0000 0.4092 0.6187
-0.0675 -0.0520 -0.0006 0.0000 -0.0000 -1.0000 0.3816 0.5912
-0.0787 -0.0328 -0.0006 0.0000 -0.0000 -1.0000 0.3620 0.5575
-0.0845 -0.0113 -0.0006 0.0000 -0.0000 -1.0000 0.3518 0.5199
-0.0845 0.0109 -0.0006 0.0000 -0.0000 -1.0000 0.3517 0.4809
-0.0788 0.0324 -0.0006 0.0000 -0.0000 -1.0000 0.3617 0.4432
-0.0678 0.0517 -0.0006 0.0000 -0.0000 -1.0000 0.3811 0.4093
-0.0521 0.0674 -0.0006 0.0000 -0.0000 -1.0000 0.4086 0.3817
-0.0329 0.0786 -0.0006 0.0000 -0.0000 -1.0000 0.4424 0.3621
-0.0114 0.0844 -0.0006 0.0000 -0.0000 -1.0000 0.4800 0.3519
0.0108 0.0844 -0.0006 0.0000 -0.0000 -1.0000 0.5190 0.3518
0.0323 0.0787 -0.0006 0.0000 -0.0000 -1.0000 0.5567 0.3618
0.0516 0.0677 -0.0006 0.0000 -0.0000 -1.0000 0.5905 0.3813
0.0674 0.0520 -0.0006 0.0000 0.0000 -1.0000 0.6182 0.4088
0.0785 0.0328 -0.0006 0.0000 0.0000 -1.0000 0.6378 0.4425
0.0843 0.0113 -0.0006 0.0000 0.0000 -1.0000 0.6479 0.4801
0.0844 -0.0109 -0.0006 0.0000 0.0000 -1.0000 0.6480 0.5191
0.0787 -0.0324 -0.0006 0.0000 0.0000 -1.0000 0.6380 0.5568
0.2850 0.2850 -0.0006 0.0000 0.0000 -1.0000 1.0000 0.0000
51 20 46
51 47 20
33 1 14
21 1 33
2 47 51
2 16 47
21 2 1
32 2 21
2 48 16
2 11 48
6 2 32
31 2 6
2 49 11
2 3 49
23 2 31
30 2 23
2 50 3
2 10 50
13 2 30
29 2 13
2 27 10
2 5 27
22 2 29
2 28 5
28 2 22
4 51 46
1 34 14
1 9 34
45 51 4
8 51 45
0 9 1
0 35 9
8 0 51
44 0 8
0 15 35
0 36 15
17 0 44
43 0 17
0 25 36
0 37 25
7 0 43
42 0 7
0 19 37
0 38 19
12 0 42
41 0 12
0 26 38
0 39 26
24 0 41
40 0 24
0 18 39
18 0 40
LABEL 02_LMVC_Optics_Reticle
MATERIAL 2
TEXTURE 2
FLAG 0
GEOM 48 46
0.0822 -0.0218 -0.0006 0.0000 0.0000 -1.0000 0.9833 0.6283
0.0600 0.0604 -0.0006 0.0000 0.0000 -1.0000 0.8527 0.1456
0.0603 -0.0601 -0.0006 0.0000 0.0000 -1.0000 0.8544 0.8527
-0.0219 -0.0823 -0.0006 0.0000 0.0000 -1.0000 0.3717 0.9833
-0.0003 0.0852 -0.0006 0.0000 0.0000 -1.0000 0.4988 0.0000
0.0423 0.0738 -0.0006 0.0000 0.0000 -1.0000 0.7490 0.0664
-0.0737 -0.0427 -0.0006 0.0000 0.0000 -1.0000 0.0676 0.7510
0.0738 -0.0424 -0.0006 0.0000 0.0000 -1.0000 0.9336 0.7490
0.0851 0.0002 -0.0006 0.0000 0.0000 -1.0000 1.0000 0.4988
-0.0223 0.0822 -0.0006 0.0000 0.0000 -1.0000 0.3694 0.0173
0.0222 -0.0822 -0.0006 0.0000 0.0000 -1.0000 0.6306 0.9827
-0.0601 -0.0604 -0.0006 0.0000 0.0000 -1.0000 0.1473 0.8544
-0.0823 -0.0222 -0.0006 0.0000 0.0000 -1.0000 0.0173 0.6306
0.0821 0.0222 -0.0006 0.0000 0.0000 -1.0000 0.9827 0.3694
0.0218 0.0823 -0.0006 0.0000 0.0000 -1.0000 0.6283 0.0167
-0.0604 0.0601 -0.0006 0.0000 0.0000 -1.0000 0.1456 0.1473
-0.0824 0.0218 -0.0006 0.0000 0.0000 -1.0000 0.0167 0.3717
0.0736 0.0428 -0.0006 0.0000 0.0000 -1.0000 0.9324 0.2490
-0.0425 -0.0738 -0.0006 0.0000 0.0000 -1.0000 0.2510 0.9336
0.0427 -0.0736 -0.0006 0.0000 0.0000 -1.0000 0.7510 0.9324
0.0001 -0.0851 -0.0006 0.0000 0.0000 -1.0000 0.5012 1.0000
-0.0428 0.0736 -0.0006 0.0000 0.0000 -1.0000 0.2490 0.0676
-0.0852 -0.0002 -0.0006 0.0000 0.0000 -1.0000 0.0000 0.5012
-0.0739 0.0424 -0.0006 0.0000 0.0000 -1.0000 0.0664 0.2510
0.0676 -0.0517 -0.0006 0.0000 0.0000 -1.0000 0.8974 0.8034
0.0519 -0.0674 -0.0006 0.0000 0.0000 -1.0000 0.8053 0.8959
0.0327 -0.0786 -0.0006 0.0000 0.0000 -1.0000 0.6924 0.9615
0.0112 -0.0844 -0.0006 0.0000 0.0000 -1.0000 0.5664 0.9956
-0.0110 -0.0844 -0.0006 0.0000 0.0000 -1.0000 0.4359 0.9959
-0.0325 -0.0787 -0.0006 0.0000 0.0000 -1.0000 0.3098 0.9624
-0.0518 -0.0677 -0.0006 0.0000 0.0000 -1.0000 0.1966 0.8974
-0.0675 -0.0520 -0.0006 0.0000 0.0000 -1.0000 0.1040 0.8053
-0.0787 -0.0328 -0.0006 0.0000 0.0000 -1.0000 0.0385 0.6924
-0.0845 -0.0113 -0.0006 0.0000 0.0000 -1.0000 0.0044 0.5664
-0.0845 0.0109 -0.0006 0.0000 0.0000 -1.0000 0.0041 0.4359
-0.0788 0.0324 -0.0006 0.0000 0.0000 -1.0000 0.0376 0.3098
-0.0678 0.0517 -0.0006 0.0000 0.0000 -1.0000 0.1026 0.1966
-0.0521 0.0674 -0.0006 0.0000 0.0000 -1.0000 0.1947 0.1040
-0.0329 0.0786 -0.0006 0.0000 0.0000 -1.0000 0.3076 0.0385
-0.0114 0.0844 -0.0006 0.0000 0.0000 -1.0000 0.4336 0.0044
0.0108 0.0844 -0.0006 0.0000 0.0000 -1.0000 0.5641 0.0041
0.0323 0.0787 -0.0006 0.0000 0.0000 -1.0000 0.6902 0.0376
0.0516 0.0677 -0.0006 0.0000 0.0000 -1.0000 0.8034 0.1026
0.0674 0.0520 -0.0006 0.0000 0.0000 -1.0000 0.8959 0.1947
0.0785 0.0328 -0.0006 0.0000 0.0000 -1.0000 0.9615 0.3076
0.0843 0.0113 -0.0006 0.0000 0.0000 -1.0000 0.9956 0.4336
0.0844 -0.0109 -0.0006 0.0000 0.0000 -1.0000 0.9959 0.5641
0.0787 -0.0324 -0.0006 0.0000 0.0000 -1.0000 0.9624 0.6902
33 32 12
32 31 6
31 30 11
30 29 18
29 28 3
28 27 20
27 26 10
26 25 19
25 24 2
24 47 7
47 46 0
46 45 8
45 44 13
44 43 17
43 42 1
42 41 5
41 40 14
40 39 4
39 38 9
38 37 21
37 36 15
36 35 23
35 34 16
34 33 22
33 31 32
31 29 30
29 27 28
27 25 26
25 47 24
47 45 46
45 43 44
43 41 42
41 39 40
39 37 38
37 35 36
35 33 34
33 29 31
29 25 27
25 45 47
45 41 43
41 37 39
37 33 35
33 25 29
25 41 45
41 33 37
25 33 41
MATERIALS 2
Optics_SXT_Eyepiece
LMVC_Optics_Reticle
MATERIAL Optics_SXT_Eyepiece
0.800 0.800 0.800 1.000
1.000 1.000 1.000 1.000
1.000 1.000 1.000 1.000 0.000
0.700 0.700 0.700 1.000
MATERIAL LMVC_Optics_Reticle
0.800 0.800 0.800 1.000
1.000 1.000 1.000 1.000
1.000 1.000 1.000 1.000 0.000
0.700 0.700 0.700 1.000
TEXTURES 2
ProjectApollo\VC\LMVC_Optics_EyePiece.dds
ProjectApollo\VC\LMVC_Optics_Reticle.dds
